<svg width="21" height="21" viewBox="0 0 21 21" fill="none" xmlns="http://www.w3.org/2000/svg">
<path d="M12.3076 19.2177H7.80758C3.69092 19.2177 1.94092 17.4594 1.94092 13.351V9.60938C1.94092 9.26771 2.22425 8.98438 2.56592 8.98438C2.90758 8.98438 3.19092 9.26771 3.19092 9.60938V13.351C3.19092 16.7594 4.39925 17.9677 7.80758 17.9677H12.2993C15.7076 17.9677 16.9159 16.7594 16.9159 13.351V9.60938C16.9159 9.26771 17.1993 8.98438 17.5409 8.98438C17.8826 8.98438 18.1659 9.26771 18.1659 9.60938V13.351C18.1742 17.4594 16.4159 19.2177 12.3076 19.2177Z" fill="#009FE3"/>
<path d="M10.0578 10.8841C9.14111 10.8841 8.30778 10.5258 7.71611 9.86745C7.12445 9.20911 6.84945 8.35078 6.94111 7.43411L7.49945 1.86745C7.53278 1.55078 7.79945 1.30078 8.12445 1.30078H12.0161C12.3411 1.30078 12.6078 1.54245 12.6411 1.86745L13.1994 7.43411C13.2911 8.35078 13.0161 9.20911 12.4244 9.86745C11.8078 10.5258 10.9744 10.8841 10.0578 10.8841ZM8.68278 2.55078L8.18278 7.55911C8.12445 8.11745 8.29111 8.64245 8.64111 9.02578C9.34945 9.80911 10.7661 9.80911 11.4744 9.02578C11.8244 8.63411 11.9911 8.10911 11.9328 7.55911L11.4328 2.55078H8.68278Z" fill="#009FE3"/>
<path d="M15.3161 10.8841C13.6244 10.8841 12.1161 9.51745 11.9411 7.83411L11.3578 1.99245C11.3411 1.81745 11.3994 1.64245 11.5161 1.50911C11.6328 1.37578 11.7994 1.30078 11.9828 1.30078H14.5244C16.9744 1.30078 18.1161 2.32578 18.4578 4.84245L18.6911 7.15911C18.7911 8.14245 18.4911 9.07578 17.8494 9.78411C17.2078 10.4924 16.3078 10.8841 15.3161 10.8841ZM12.6744 2.55078L13.1911 7.70911C13.2994 8.75078 14.2661 9.63411 15.3161 9.63411C15.9494 9.63411 16.5161 9.39245 16.9244 8.95078C17.3244 8.50911 17.5078 7.91745 17.4494 7.28411L17.2161 4.99245C16.9578 3.10911 16.3494 2.55078 14.5244 2.55078H12.6744Z" fill="#009FE3"/>
<path d="M4.75763 10.8841C3.76597 10.8841 2.86597 10.4924 2.2243 9.78411C1.58264 9.07578 1.28264 8.14245 1.38264 7.15911L1.60764 4.86745C1.95763 2.32578 3.0993 1.30078 5.5493 1.30078H8.09097C8.26597 1.30078 8.43263 1.37578 8.55763 1.50911C8.68263 1.64245 8.73263 1.81745 8.71597 1.99245L8.13263 7.83411C7.95763 9.51745 6.4493 10.8841 4.75763 10.8841ZM5.5493 2.55078C3.7243 2.55078 3.11597 3.10078 2.8493 5.00911L2.6243 7.28411C2.55763 7.91745 2.7493 8.50911 3.1493 8.95078C3.5493 9.39245 4.11597 9.63411 4.75763 9.63411C5.80763 9.63411 6.78263 8.75078 6.88263 7.70911L7.3993 2.55078H5.5493Z" fill="#009FE3"/>
<path d="M12.1408 19.2174H7.97412C7.63245 19.2174 7.34912 18.9341 7.34912 18.5924V16.5091C7.34912 14.7591 8.30745 13.8008 10.0575 13.8008C11.8075 13.8008 12.7658 14.7591 12.7658 16.5091V18.5924C12.7658 18.9341 12.4825 19.2174 12.1408 19.2174ZM8.59912 17.9674H11.5158V16.5091C11.5158 15.4591 11.1075 15.0508 10.0575 15.0508C9.00745 15.0508 8.59912 15.4591 8.59912 16.5091V17.9674Z" fill="#009FE3"/>
</svg>
