<svg width="413" height="401" viewBox="0 0 413 401" fill="none" xmlns="http://www.w3.org/2000/svg">
<g opacity="0.2">
<path d="M381.018 299.561C381.018 336.346 351.848 369.776 304.398 394.039C256.975 418.289 191.426 433.302 118.995 433.302C46.5645 433.302 -18.9847 418.289 -66.4079 394.039C-113.858 369.776 -143.028 336.346 -143.028 299.561C-143.028 262.775 -113.858 229.346 -66.4079 205.083C-18.9847 180.833 46.5645 165.82 118.995 165.82C191.426 165.82 256.975 180.833 304.398 205.083C351.848 229.346 381.018 262.775 381.018 299.561Z" stroke="#009FE3" stroke-width="0.991327"/>
<path d="M373.27 364.136C364.573 399.832 328.362 425.085 276.578 436.937C224.823 448.783 157.662 447.198 87.3733 429.349C17.0842 411.499 -42.9771 380.776 -83.2646 345.556C-123.575 310.317 -143.978 270.687 -135.28 234.991C-126.583 199.294 -90.3718 174.041 -38.5878 162.189C13.1669 150.343 80.3277 151.928 150.617 169.778C220.906 187.627 280.967 218.35 321.255 253.57C361.565 288.809 381.968 328.439 373.27 364.136Z" stroke="#009FE3" stroke-width="0.991327"/>
<path d="M351.829 422.268C335.303 454.952 294.364 470.998 241.297 470.337C188.261 469.677 123.269 452.321 58.9065 418.401C-5.45553 384.482 -56.9572 340.444 -88.2022 296.687C-119.465 252.905 -130.364 209.54 -113.838 176.856C-97.3115 144.172 -56.373 128.126 -3.30613 128.787C49.7299 129.447 114.723 146.803 179.085 180.723C243.447 214.642 294.948 258.68 326.193 302.437C357.457 346.219 368.355 389.584 351.829 422.268Z" stroke="#009FE3" stroke-width="0.991327"/>
<path d="M317.832 473.786C294.37 501.694 250.912 507.67 199.423 494.531C147.965 481.4 88.6451 449.207 33.6806 401.047C-21.2839 352.886 -61.4488 297.908 -81.9664 247.973C-102.496 198.008 -103.303 153.248 -79.8405 125.339C-56.3784 97.4302 -12.9203 91.4549 38.5685 104.594C90.0263 117.725 149.347 149.917 204.311 198.078C259.276 246.238 299.44 301.217 319.958 351.151C340.488 401.117 341.294 445.877 317.832 473.786Z" stroke="#009FE3" stroke-width="0.991327"/>
<path d="M273.113 515.911C243.981 537.541 200.347 533.124 153.212 508.214C106.107 483.32 55.6586 438.027 13.0557 378.222C-29.5472 318.417 -56.2092 255.462 -64.8928 202.042C-73.5818 148.587 -64.2529 104.846 -35.1214 83.2166C-5.98988 61.5871 37.6449 66.004 84.7793 90.9136C131.884 115.808 182.333 161.101 224.936 220.906C267.539 280.711 294.201 343.665 302.884 397.086C311.573 450.54 302.244 494.282 273.113 515.911Z" stroke="#009FE3" stroke-width="0.991327"/>
<path d="M220.082 546.367C186.852 560.553 145.393 545.982 105.155 510.644C64.9438 475.33 26.087 419.378 -1.85664 351.153C-29.8003 282.928 -41.5213 215.392 -37.9021 161.366C-34.2805 107.305 -15.3206 66.9416 17.9088 52.7561C51.1383 38.5706 92.5979 53.1411 132.835 88.479C173.047 123.794 211.904 179.745 239.847 247.971C267.791 316.196 279.512 383.732 275.893 437.757C272.271 491.819 253.311 532.182 220.082 546.367Z" stroke="#009FE3" stroke-width="0.991327"/>
<path d="M161.6 563.518C126.063 569.496 89.0135 545.558 57.8435 501.697C26.6942 457.865 1.52521 394.272 -10.252 321.306C-22.0292 248.34 -18.1768 179.865 -2.44976 128.147C13.2878 76.3955 40.8554 41.5862 76.3916 35.6079C111.928 29.6296 148.978 53.5683 180.148 97.429C211.297 141.261 236.466 204.854 248.243 277.82C260.02 350.786 256.168 419.261 240.441 470.979C224.703 522.731 197.136 557.54 161.6 563.518Z" stroke="#009FE3" stroke-width="0.991327"/>
<path d="M100.82 566.432C64.8915 563.882 34.2486 531.865 13.8277 481.847C-6.57954 431.862 -16.7033 364.057 -11.6788 290.285C-6.65431 216.513 12.5638 150.791 39.5507 104.171C66.5556 57.5198 101.244 30.1404 137.172 32.6909C173.101 35.2414 203.743 67.2585 224.164 117.276C244.572 167.261 254.695 235.066 249.671 308.838C244.646 382.61 225.428 448.332 198.441 494.952C171.436 541.603 136.748 568.983 100.82 566.432Z" stroke="#009FE3" stroke-width="0.991327"/>
<path d="M41.0203 554.958C6.63549 544.016 -15.9478 505.646 -24.5182 452.169C-33.083 398.727 -27.6156 330.367 -6.06044 259.767C15.4947 189.167 49.0422 129.743 85.8335 90.7343C122.649 51.7003 162.588 33.2262 196.973 44.1683C231.357 55.1104 253.941 93.4805 262.511 146.957C271.076 200.399 265.608 268.76 244.053 339.359C222.498 409.959 188.951 469.383 152.159 508.392C115.344 547.426 75.4052 565.9 41.0203 554.958Z" stroke="#009FE3" stroke-width="0.991327"/>
<path d="M-14.5747 529.709C-45.563 510.964 -58.8682 468.309 -55.1264 414.258C-51.3869 360.241 -30.6236 295.011 6.29966 231.391C43.2229 167.771 89.2903 117.849 133.902 88.5555C178.542 59.2436 221.578 50.6704 252.566 69.4154C283.555 88.1605 296.86 130.815 293.118 184.867C289.379 238.884 268.615 304.113 231.692 367.733C194.769 431.353 148.701 481.276 104.09 510.569C59.45 539.881 16.4135 548.454 -14.5747 529.709Z" stroke="#009FE3" stroke-width="0.991327"/>
<path d="M-62.9654 492.053C-88.8861 466.514 -92.1946 421.874 -76.3433 370.163C-60.5017 318.484 -25.5623 259.903 24.7375 206.693C75.0374 153.483 131.14 115.755 181.166 97.756C231.222 79.7464 275.037 81.5363 300.958 107.075C326.878 132.614 330.187 177.254 314.335 228.965C298.494 280.644 263.554 339.225 213.255 392.435C162.955 445.644 106.852 483.373 56.8263 501.372C6.76995 519.381 -37.0447 517.592 -62.9654 492.053Z" stroke="#009FE3" stroke-width="0.991327"/>
<path d="M-101.544 444.016C-120.998 413.059 -114.131 368.843 -87.0255 322.26C-59.9363 275.705 -12.7054 226.932 48.2585 187.001C109.222 147.07 172.335 123.569 225.077 117.836C277.851 112.098 320.082 124.156 339.536 155.113C358.99 186.07 352.123 230.286 325.017 276.869C297.928 323.424 250.697 372.197 189.734 412.128C128.77 452.059 65.6567 475.559 12.9147 481.293C-39.8586 487.031 -82.0896 474.973 -101.544 444.016Z" stroke="#009FE3" stroke-width="0.991327"/>
</g>
</svg>
