<svg width="37" height="37" viewBox="0 0 37 37" fill="none" xmlns="http://www.w3.org/2000/svg">
<circle cx="18.8025" cy="18.0175" r="18.0019" fill="white"/>
<path d="M23.0321 24.5827H14.5728C13.4038 24.5827 12.4489 23.6277 12.4489 22.4587V13.9994C12.4489 12.8305 13.4038 11.8755 14.5728 11.8755H23.0321C24.201 11.8755 25.156 12.8305 25.156 13.9994V22.4587C25.156 23.6329 24.2063 24.5827 23.0321 24.5827Z" fill="black"/>
<path d="M18.8051 21.4934C17.9336 21.4934 17.1142 21.1542 16.4985 20.5384C15.8827 19.9226 15.5435 19.1033 15.5435 18.2318C15.5435 17.3603 15.8827 16.541 16.4985 15.9252C17.1142 15.3094 17.9336 14.9702 18.8051 14.9702C19.6766 14.9702 20.4959 15.3094 21.1117 15.9252C21.7274 16.541 22.0667 17.3603 22.0667 18.2318C22.0667 19.1033 21.7274 19.9226 21.1117 20.5384C20.4907 21.1542 19.6766 21.4934 18.8051 21.4934ZM18.8051 15.6643C17.3908 15.6643 16.2375 16.8124 16.2375 18.2318C16.2375 19.646 17.3856 20.7993 18.8051 20.7993C20.2193 20.7993 21.3726 19.6513 21.3726 18.2318C21.3674 16.8176 20.2193 15.6643 18.8051 15.6643Z" fill="white"/>
<path d="M22.7024 14.8628C23.0483 14.8628 23.3287 14.5825 23.3287 14.2366C23.3287 13.8907 23.0483 13.6104 22.7024 13.6104C22.3566 13.6104 22.0762 13.8907 22.0762 14.2366C22.0762 14.5825 22.3566 14.8628 22.7024 14.8628Z" fill="white"/>
</svg>
