<svg width="35" height="35" viewBox="0 0 35 35" fill="none" xmlns="http://www.w3.org/2000/svg">
<rect x="0.796875" y="0.015625" width="34" height="34" rx="17" fill="white"/>
<g clip-path="url(#clip0_1531_2098)">
<path d="M13.4297 24.0156V13.8952H9.99938V24.0156H13.4297ZM11.715 12.5125C12.9112 12.5125 13.6558 11.7354 13.6558 10.7642C13.6335 9.77119 12.9112 9.01562 11.7377 9.01562C10.5643 9.01562 9.797 9.7712 9.797 10.7642C9.797 11.7355 10.5414 12.5125 11.6926 12.5125H11.7149H11.715ZM15.3283 24.0156H18.7586V18.3639C18.7586 18.0614 18.7809 17.7592 18.8715 17.543C19.1195 16.9387 19.6839 16.3127 20.6315 16.3127C21.8728 16.3127 22.3694 17.2408 22.3694 18.6013V24.0156H25.7995V18.2126C25.7995 15.104 24.1071 13.6576 21.8502 13.6576C19.9997 13.6576 19.1872 14.6719 18.7358 15.3627H18.7587V13.8949H15.3284C15.3734 14.8446 15.3284 24.0154 15.3284 24.0154L15.3283 24.0156Z" fill="#192031"/>
</g>
<defs>
<clipPath id="clip0_1531_2098">
<rect width="16" height="15" fill="white" transform="translate(9.797 9.01562)"/>
</clipPath>
</defs>
</svg>
